<svg width="931" height="563" viewBox="0 0 931 563" fill="none" xmlns="http://www.w3.org/2000/svg">
<path d="M722.172 187.938C664.125 139.271 568.479 158.781 501.286 174.016C460.479 183.266 419.229 193.115 377.193 193.974C338.115 194.771 308.125 183.74 273.318 168.099C251.458 158.276 235.292 142.755 214.662 131.198C193.385 119.276 171.016 108.927 147.026 103.906C105.771 95.2709 72.5573 107.229 53.5105 144.802C35.2188 180.885 31.8698 223.214 34.2917 263.005C35.7813 287.469 39.8542 312.464 46.9792 336.417C69.9167 413.495 141.068 466.146 221.495 466.146H768.484C786.026 445.599 797.109 421.74 802.786 395.411C819.224 319.188 781.927 238.036 722.172 187.938Z" fill="url(#paint0_radial_113_2177)"/>
<path d="M363.813 484.896L442.458 503.125" stroke="#EECFF8" stroke-width="0.385417" stroke-miterlimit="10"/>
<path d="M446.625 503.125L419.021 488.542" stroke="#EECFF8" stroke-width="0.385417" stroke-miterlimit="10"/>
<path d="M401.313 504.167L319.542 506.25" stroke="#EECFF8" stroke-width="0.385417" stroke-miterlimit="10"/>
<path d="M423.276 504.188C424.281 504.188 424.281 502.625 423.276 502.625C422.271 502.625 422.266 504.188 423.276 504.188Z" fill="#EECFF8"/>
<path d="M451.698 497.609C452.703 497.609 452.703 496.047 451.698 496.047C450.693 496.047 450.687 497.609 451.698 497.609Z" fill="#EECFF8"/>
<path d="M451.958 506.026C452.963 506.026 452.963 504.463 451.958 504.463C450.953 504.463 450.953 506.026 451.958 506.026Z" fill="#EECFF8"/>
<path d="M303.536 505.24C304.542 505.24 304.542 503.677 303.536 503.677C302.531 503.677 302.531 505.24 303.536 505.24Z" fill="#EECFF8"/>
<path d="M376.172 473.922C377.178 473.922 377.178 472.359 376.172 472.359C375.167 472.359 375.162 473.922 376.172 473.922Z" fill="#EECFF8"/>
<path d="M341.958 458.135C342.963 458.135 342.963 456.573 341.958 456.573C340.953 456.573 340.953 458.135 341.958 458.135Z" fill="#EECFF8"/>
<path d="M568.5 503.385H635.167" stroke="#EECFF8" stroke-width="0.385417" stroke-miterlimit="10"/>
<path d="M646.104 503.385H781.521" stroke="#EECFF8" stroke-width="0.385417" stroke-miterlimit="10"/>
<path d="M605.219 496.615H660.427" stroke="#EECFF8" stroke-width="0.385417" stroke-miterlimit="10"/>
<path d="M709.51 471.469C709.51 471.469 711.26 474.385 721.177 474.969C731.094 475.552 731.094 484.885 736.927 484.885C742.761 484.885 739.844 479.635 737.511 477.302C735.177 474.969 730.511 470.885 730.511 470.885C730.511 470.885 722.927 469.135 720.594 466.219C718.26 463.302 711.844 460.969 711.844 460.969L709.51 471.469Z" fill="#FB8F8F"/>
<path d="M709.51 471.469C709.51 471.469 711.26 474.385 721.177 474.969C731.094 475.552 731.094 484.885 736.927 484.885C742.761 484.885 739.844 479.635 737.511 477.302C735.177 474.969 730.511 470.885 730.511 470.885C730.511 470.885 722.927 469.135 720.594 466.219C718.26 463.302 711.844 460.969 711.844 460.969L709.51 471.469Z" fill="url(#paint1_radial_113_2177)"/>
<path d="M709.51 471.469C709.51 471.469 711.26 474.385 721.177 474.969C731.094 475.552 731.094 484.885 736.927 484.885C742.761 484.885 739.844 479.635 737.511 477.302C735.177 474.969 730.511 470.885 730.511 470.885C730.511 470.885 722.927 469.135 720.594 466.219C718.26 463.302 711.844 460.969 711.844 460.969L709.51 471.469Z" fill="url(#paint2_radial_113_2177)"/>
<path d="M646.505 459.214C646.505 459.214 644.172 465.63 638.922 472.047C638.922 472.047 636.005 473.797 640.672 476.714C645.338 479.63 651.755 482.547 652.338 487.797C652.338 487.797 652.922 490.13 650.005 490.714C647.088 491.297 642.422 488.38 642.422 488.38C642.422 488.38 637.755 483.714 633.088 481.38C628.422 479.047 623.755 476.714 623.755 473.797C623.755 470.88 629.005 462.13 629.005 462.13C629.005 462.13 641.839 450.464 646.505 459.214Z" fill="#FB8F8F"/>
<path d="M646.505 459.214C646.505 459.214 644.172 465.63 638.922 472.047C638.922 472.047 636.005 473.797 640.672 476.714C645.338 479.63 651.755 482.547 652.338 487.797C652.338 487.797 652.922 490.13 650.005 490.714C647.088 491.297 642.422 488.38 642.422 488.38C642.422 488.38 637.755 483.714 633.088 481.38C628.422 479.047 623.755 476.714 623.755 473.797C623.755 470.88 629.005 462.13 629.005 462.13C629.005 462.13 641.839 450.464 646.505 459.214Z" fill="url(#paint3_radial_113_2177)"/>
<path d="M646.505 459.214C646.505 459.214 644.172 465.63 638.922 472.047C638.922 472.047 636.005 473.797 640.672 476.714C645.338 479.63 651.755 482.547 652.338 487.797C652.338 487.797 652.922 490.13 650.005 490.714C647.088 491.297 642.422 488.38 642.422 488.38C642.422 488.38 637.755 483.714 633.088 481.38C628.422 479.047 623.755 476.714 623.755 473.797C623.755 470.88 629.005 462.13 629.005 462.13C629.005 462.13 641.839 450.464 646.505 459.214Z" fill="url(#paint4_radial_113_2177)"/>
<path d="M676.771 435.698C668.318 436.422 659.813 435.302 651.745 432.667C642.552 429.661 625.766 425.688 610.328 430.047C597.365 433.703 589.891 441.339 581.761 447.448C573.276 453.818 562.651 456.641 552.104 455.469L545.297 454.714C544.672 454.646 544.302 455.396 544.74 455.849C546.797 457.969 553.11 461.656 571.24 458.635C595.745 454.552 603.912 444.052 603.912 444.052C603.912 444.052 604.495 454.552 601.578 459.802C598.662 465.052 590.495 473.802 590.495 473.802L596.912 490.719C596.912 490.719 600.995 492.469 606.828 490.719L608.578 488.969C608.578 488.969 609.162 484.302 605.078 483.719C605.078 483.719 602.162 482.552 603.912 477.302C605.662 472.052 608.578 470.302 621.412 470.302C634.245 470.302 640.084 461.552 640.084 461.552C640.084 461.552 651.167 462.135 658.755 468.552C666.339 474.969 687.344 482.552 699.594 478.469C699.594 478.469 704.844 483.719 705.427 487.802C706.011 491.886 706.594 494.219 713.011 493.636C713.011 493.636 717.677 493.052 716.511 489.552C715.344 486.052 712.427 489.552 711.261 484.886C710.094 480.219 709.511 474.969 709.511 474.969C709.511 474.969 717.677 472.052 716.511 458.052C715.344 444.052 721.177 436.464 729.344 437.63C737.511 438.797 745.677 439.964 745.677 439.964C745.677 439.964 752.677 442.297 760.261 437.047C767.844 431.797 769.011 428.88 769.011 428.88L768.427 425.964C768.427 425.964 748.589 418.38 746.256 416.63C743.922 414.88 735.756 407.297 735.756 407.297C735.756 407.297 713.584 407.297 708.334 412.547C703.084 417.797 695.5 430.63 687.912 433.552C685.052 434.651 681.005 435.339 676.771 435.698Z" fill="#FB8F8F"/>
<path d="M695.948 427.417C695.948 427.417 706.307 440.833 720.307 442L716.99 448.276C716.99 448.276 699.891 444.917 692 431.109L695.948 427.417Z" fill="url(#paint5_radial_113_2177)"/>
<path d="M676.771 435.698C668.318 436.422 659.813 435.302 651.745 432.667C642.552 429.661 625.766 425.688 610.328 430.047C597.38 433.698 589.912 441.318 581.792 447.422C573.292 453.813 562.63 456.641 552.057 455.464L545.297 454.714C544.672 454.646 544.302 455.396 544.74 455.849C546.797 457.969 553.11 461.656 571.24 458.635C595.745 454.552 603.912 444.052 603.912 444.052C603.912 444.052 604.495 454.552 601.578 459.802C598.662 465.052 590.495 473.802 590.495 473.802L596.912 490.719C596.912 490.719 600.995 492.469 606.828 490.719L608.578 488.969C608.578 488.969 609.162 484.302 605.078 483.719C605.078 483.719 602.162 482.552 603.912 477.302C605.662 472.052 608.578 470.302 621.412 470.302C634.245 470.302 640.084 461.552 640.084 461.552C640.084 461.552 651.167 462.135 658.755 468.552C666.339 474.969 687.344 482.552 699.594 478.469C699.594 478.469 704.844 483.719 705.427 487.802C706.011 491.886 706.594 494.219 713.011 493.636C713.011 493.636 717.677 493.052 716.511 489.552C715.344 486.052 712.427 489.552 711.261 484.886C710.094 480.219 709.511 474.969 709.511 474.969C709.511 474.969 717.677 472.052 716.511 458.052C715.344 444.052 721.177 436.464 729.344 437.63C737.511 438.797 745.677 439.964 745.677 439.964C745.677 439.964 752.677 442.297 760.261 437.047C767.844 431.797 769.011 428.88 769.011 428.88L768.427 425.964C768.427 425.964 748.589 418.38 746.256 416.63C743.922 414.88 735.756 407.297 735.756 407.297C735.756 407.297 713.584 407.297 708.334 412.547C703.084 417.797 695.5 430.63 687.912 433.552C685.052 434.651 681.005 435.339 676.771 435.698Z" fill="url(#paint6_radial_113_2177)"/>
<path d="M621.417 470.302C627.401 470.302 631.864 468.401 634.922 466.365C633.333 465.271 631.625 464.344 629.776 463.636C624.672 461.667 618.953 461.354 613.536 461.042C608.599 460.761 603.875 460.979 599.51 462.979C595.922 467.974 590.49 473.797 590.49 473.797L596.906 490.714C596.906 490.714 600.99 492.464 606.823 490.714L608.573 488.964C608.573 488.964 609.156 484.297 605.073 483.714C605.073 483.714 602.156 482.547 603.906 477.297C605.656 472.047 608.583 470.302 621.417 470.302Z" fill="url(#paint7_radial_113_2177)"/>
<path d="M711.261 484.885C710.886 483.385 710.573 481.833 710.318 480.406C707.682 480.208 705.057 480.927 703.011 482.604C704.146 484.234 705.182 486.12 705.422 487.802C706.005 491.885 706.589 494.219 713.005 493.636C713.005 493.636 717.672 493.052 716.505 489.552C715.349 486.052 712.427 489.552 711.261 484.885Z" fill="url(#paint8_radial_113_2177)"/>
<path d="M746.266 416.625C745.911 416.359 745.422 415.958 744.849 415.474C744.078 415.687 743.312 415.911 742.552 416.156C735.724 418.365 728.635 421.963 725.219 428.604C723.568 431.823 722.865 435.385 722.562 439C724.505 437.75 726.812 437.271 729.344 437.63C737.51 438.797 745.677 439.963 745.677 439.963C745.677 439.963 752.677 442.297 760.26 437.047C767.844 431.797 769.01 428.88 769.01 428.88L768.427 425.963C768.437 425.958 748.599 418.375 746.266 416.625Z" fill="url(#paint9_radial_113_2177)"/>
<path d="M734.5 414.318C734.333 415.234 733.891 416.073 733.302 416.797C731.802 418.635 728.573 424.078 729.938 435.875C731.688 451.042 715.938 452.208 713.604 442.292C711.912 435.094 712.677 425.438 713.224 420.682C713.438 418.844 714.542 417.24 716.177 416.375C722.047 413.266 735.875 406.667 734.5 414.318Z" fill="url(#paint10_radial_113_2177)"/>
<path d="M740.432 415.458H741.599L745.682 416.625L747.432 419.542L743.932 423.042L740.432 424.208C736.932 420.125 740.432 415.458 740.432 415.458Z" fill="url(#paint11_radial_113_2177)"/>
<path d="M769.021 428.875L768.437 425.958C768.437 425.958 767.729 425.688 766.562 425.234C766.562 425.234 762.021 426.542 762.604 428.875C762.984 430.401 765.609 430.927 767.38 431.109C768.708 429.651 769.021 428.875 769.021 428.875Z" fill="url(#paint12_radial_113_2177)"/>
<path d="M741.016 422.167C741.823 422.167 742.474 421.122 742.474 419.833C742.474 418.545 741.823 417.5 741.016 417.5C740.208 417.5 739.557 418.545 739.557 419.833C739.557 421.122 740.208 422.167 741.016 422.167Z" fill="url(#paint13_radial_113_2177)"/>
<path d="M743.641 435.589C743.641 435.589 745.391 438.505 750.641 439.672" stroke="#0061FE" stroke-width="0.385417" stroke-miterlimit="10"/>
<path d="M733.432 434.714C731.224 429.672 731.109 423.943 733.432 416.62C733.385 416.677 733.349 416.745 733.302 416.802C731.802 418.641 728.573 424.083 729.937 435.88C730.01 436.526 730.042 437.136 730.057 437.729C731.963 438 733.854 438.271 735.63 438.526C734.474 437.068 733.786 435.516 733.432 434.714Z" fill="url(#paint14_radial_113_2177)"/>
<path d="M699.594 478.469C696.677 474.969 696.677 472.635 696.677 472.635C698.427 465.635 696.677 463.302 696.677 463.302C696.677 469.135 693.76 472.052 693.76 472.052C693.76 472.052 679.177 477.885 667.505 465.635C655.839 453.385 654.672 452.219 654.672 452.219C646.505 452.219 640.089 461.552 640.089 461.552L640.724 461.604C643.172 461.839 652.25 463.047 658.761 468.552C666.339 474.969 687.344 482.552 699.594 478.469Z" fill="url(#paint15_radial_113_2177)"/>
<path d="M757.719 432.521C758.474 432.521 758.474 431.349 757.719 431.349C756.969 431.349 756.964 432.521 757.719 432.521Z" fill="#0061FE"/>
<path d="M755.51 436.01C756.015 436.01 756.015 435.229 755.51 435.229C755.005 435.229 755.005 436.01 755.51 436.01Z" fill="#0061FE"/>
<path d="M753.594 433.505C754.099 433.505 754.099 432.724 753.594 432.724C753.094 432.724 753.089 433.505 753.594 433.505Z" fill="#0061FE"/>
<path d="M749.469 433.162C749.718 433.162 749.718 432.771 749.469 432.771C749.214 432.771 749.214 433.162 749.469 433.162Z" fill="#0061FE"/>
<path d="M758.162 434.932C758.412 434.932 758.412 434.542 758.162 434.542C757.911 434.542 757.911 434.932 758.162 434.932Z" fill="#0061FE"/>
<path d="M691.135 429.75C692.422 429.75 693.469 428.705 693.469 427.417C693.469 426.128 692.422 425.083 691.135 425.083C689.849 425.083 688.802 426.128 688.802 427.417C688.802 428.705 689.849 429.75 691.135 429.75Z" stroke="#0144B9" stroke-width="0.385417" stroke-miterlimit="10"/>
<path d="M693.036 428.771L693.849 429.521" stroke="#0144B9" stroke-width="0.385417" stroke-miterlimit="10"/>
<path d="M696.886 439.844C696.886 439.844 703.656 447.656 713.031 448.698" stroke="#0061FE" stroke-width="0.385417" stroke-miterlimit="10"/>
<path d="M728.656 435.677C728.656 435.677 729.177 442.969 725.531 445.573" stroke="#F1D23C" stroke-width="0.385417" stroke-miterlimit="10"/>
<path d="M620.323 468.49C620.323 468.49 632.823 468.49 638.031 461.198" stroke="#F1D23C" stroke-width="0.385417" stroke-miterlimit="10"/>
<path d="M661.99 468.49C661.99 468.49 671.365 475.781 682.823 476.823" stroke="#EECFF8" stroke-width="0.385417" stroke-miterlimit="10"/>
<path d="M601.312 156.771H521.625V204.167H601.312V156.771Z" stroke="#DEF4FF" stroke-width="0.385417" stroke-miterlimit="10"/>
<path d="M596.625 151.042H516.937V198.438H596.625V151.042Z" fill="url(#paint16_radial_113_2177)"/>
<path d="M608.865 139.323C624.688 139.323 637.51 126.498 637.51 110.677C637.51 94.8562 624.688 82.0312 608.865 82.0312C593.042 82.0312 580.219 94.8562 580.219 110.677C580.219 126.498 593.042 139.323 608.865 139.323Z" stroke="#0061FE" stroke-width="0.385417" stroke-miterlimit="10"/>
<path d="M615.115 139.323C630.938 139.323 643.761 126.498 643.761 110.677C643.761 94.8562 630.938 82.0312 615.115 82.0312C599.292 82.0312 586.469 94.8562 586.469 110.677C586.469 126.498 599.292 139.323 615.115 139.323Z" fill="#DEF4FF"/>
<path d="M604.438 133.854H542.979V164.063H604.438V133.854Z" fill="#FFDE99"/>
<path d="M604.438 133.854H542.979V164.063H604.438V133.854Z" fill="url(#paint17_radial_113_2177)"/>
<path d="M573.448 149.219L542.979 134.245V164.063H604.438V133.984L573.448 149.219Z" fill="url(#paint18_radial_113_2177)"/>
<path d="M610.948 126.823H549.49V157.031H610.948V126.823Z" fill="#FFDE99"/>
<path d="M579.958 142.187L549.49 127.214V157.031H610.948V126.953L579.958 142.187Z" fill="url(#paint19_radial_113_2177)"/>
<path d="M605.479 136.458H618.5" stroke="#0061FE" stroke-width="0.385417" stroke-miterlimit="10"/>
<path d="M605.479 139.323H618.5" stroke="#0061FE" stroke-width="0.385417" stroke-miterlimit="10"/>
<path d="M605.479 142.448H618.5" stroke="#0061FE" stroke-width="0.385417" stroke-miterlimit="10"/>
<path d="M570.062 171.354H500.271V177.083H570.062V171.354Z" fill="url(#paint20_radial_113_2177)"/>
<path d="M570.062 180.208H500.271V185.937H570.062V180.208Z" fill="url(#paint21_radial_113_2177)"/>
<path d="M615.115 110.714C618.568 110.714 621.365 107.915 621.365 104.464C621.365 101.012 618.568 98.2136 615.115 98.2136C611.661 98.2136 608.865 101.012 608.865 104.464C608.865 107.915 611.661 110.714 615.115 110.714Z" fill="#0061FE"/>
<path d="M628.349 123.141C626.401 117.417 621.208 113.318 615.114 113.318C609.021 113.318 603.828 117.412 601.88 123.141H628.349Z" fill="#0061FE"/>
<path d="M695.063 161.979H645.063V150.521L639.854 139.583H645.063V128.125H695.063V161.979Z" fill="#0061FE"/>
<path d="M667.458 133.333H717.458V121.875L722.667 110.938H717.458V99.4792H667.458V133.333Z" stroke="#0061FE" stroke-width="0.385417" stroke-miterlimit="10"/>
<path d="M671.365 104.948C672.229 104.948 672.927 104.249 672.927 103.386C672.927 102.522 672.229 101.823 671.365 101.823C670.5 101.823 669.802 102.522 669.802 103.386C669.802 104.249 670.5 104.948 671.365 104.948Z" stroke="#0061FE" stroke-width="0.385417" stroke-miterlimit="10"/>
<path d="M669.542 148.958C671.557 148.958 673.187 147.326 673.187 145.313C673.187 143.299 671.557 141.667 669.542 141.667C667.526 141.667 665.896 143.299 665.896 145.313C665.896 147.326 667.526 148.958 669.542 148.958Z" fill="white"/>
<path d="M657.042 148.958C659.057 148.958 660.688 147.326 660.688 145.313C660.688 143.299 659.057 141.667 657.042 141.667C655.026 141.667 653.396 143.299 653.396 145.313C653.396 147.326 655.026 148.958 657.042 148.958Z" fill="white"/>
<path d="M682.042 148.958C684.057 148.958 685.688 147.326 685.688 145.313C685.688 143.299 684.057 141.667 682.042 141.667C680.026 141.667 678.396 143.299 678.396 145.313C678.396 147.326 680.026 148.958 682.042 148.958Z" fill="white"/>
<path d="M667.786 187.646C662.927 184.823 656.917 184.865 652.094 187.761C647.276 190.651 641.266 190.698 636.401 187.875L636.016 187.651C631.156 184.828 625.146 184.87 620.323 187.766C615.505 190.656 609.495 190.703 604.63 187.88L604.245 187.656C599.385 184.833 593.375 184.875 588.552 187.771" stroke="#0061FE" stroke-width="0.385417" stroke-miterlimit="10"/>
<path d="M709.906 85.1562C714.219 85.1562 717.719 81.6583 717.719 77.3437C717.719 73.0292 714.219 69.5312 709.906 69.5312C705.594 69.5312 702.094 73.0292 702.094 77.3437C702.094 81.6583 705.594 85.1562 709.906 85.1562Z" stroke="#FA404B" stroke-width="0.385417" stroke-miterlimit="10"/>
<path d="M689.854 164.583H697.146V157.292" stroke="#FA404B" stroke-width="0.385417" stroke-miterlimit="10"/>
<path d="M179.771 339.615C179.771 339.615 172.781 337.557 165.359 337.589C162.339 337.599 159.432 336.458 157.281 334.333C156.411 333.474 155.521 332.344 154.776 331.307C153.693 329.807 151.589 329.5 150.125 330.63C141.578 337.255 116.568 358.307 118.505 376.292C118.635 377.5 120.141 377.985 120.953 377.078C124.312 373.344 132.828 364.709 151.182 350.11C151.182 350.11 164.016 350.11 171.604 355.943C179.193 361.776 179.771 339.615 179.771 339.615Z" fill="#FFDE99"/>
<path d="M179.771 339.615C179.771 339.615 172.781 337.557 165.359 337.589C162.339 337.599 159.432 336.458 157.281 334.333C156.411 333.474 155.521 332.344 154.776 331.307C153.693 329.807 151.589 329.5 150.125 330.63C141.578 337.255 116.568 358.307 118.505 376.292C118.635 377.5 120.141 377.985 120.953 377.078C124.312 373.344 132.828 364.709 151.182 350.11C151.182 350.11 164.016 350.11 171.604 355.943C179.193 361.776 179.771 339.615 179.771 339.615Z" fill="url(#paint22_radial_113_2177)"/>
<path d="M327.958 330.281C327.958 330.281 285.37 383.37 257.365 396.208C257.365 396.208 173.938 365.286 165.182 354.203C165.182 354.203 168.682 338.453 176.266 336.703C183.849 334.953 228.479 343.411 246.568 363.25C246.568 363.25 267.573 286.823 293.823 280.406C320.083 273.979 327.958 330.281 327.958 330.281Z" fill="#0144B9"/>
<path d="M327.958 330.281C327.958 330.281 285.37 383.37 257.365 396.208C257.365 396.208 173.938 365.286 165.182 354.203C165.182 354.203 168.682 338.453 176.266 336.703C183.849 334.953 228.479 343.411 246.568 363.25C246.568 363.25 267.573 286.823 293.823 280.406C320.083 273.979 327.958 330.281 327.958 330.281Z" fill="url(#paint23_radial_113_2177)"/>
<path d="M450.475 476.135C450.475 476.135 459.807 484.885 463.891 491.885C465.224 494.167 466.057 495.891 466.578 497.182C468.573 502.115 474.391 504.359 479.068 501.828C480.938 500.818 510.016 486.323 522.057 466.76C522.604 465.875 521.755 464.588 520.797 464.989C512.313 468.552 503.547 471.474 491.891 476.135C478.016 481.687 470.302 470.302 463.302 461.552C456.307 452.797 450.475 476.135 450.475 476.135Z" fill="#FFDE99"/>
<path d="M450.475 476.135C450.475 476.135 459.807 484.885 463.891 491.885C465.224 494.167 466.057 495.891 466.578 497.182C468.573 502.115 474.391 504.359 479.068 501.828C480.938 500.818 510.016 486.323 522.057 466.76C522.604 465.875 521.755 464.588 520.797 464.989C512.313 468.552 503.547 471.474 491.891 476.135C478.016 481.687 470.302 470.302 463.302 461.552C456.307 452.797 450.475 476.135 450.475 476.135Z" fill="url(#paint24_radial_113_2177)"/>
<path d="M341.958 270.771C341.958 270.771 400.302 366.453 421.886 393.287C443.474 420.125 467.391 461.547 467.391 461.547C467.391 461.547 452.224 482.552 448.136 480.802C444.052 479.052 445.219 478.469 444.636 474.969C444.052 471.469 362.958 386.292 348.953 362.953C334.953 339.615 330.87 337.865 330.87 337.865C330.87 337.865 281.281 320.948 278.948 288.276C276.615 255.604 306.37 253.854 306.37 253.854L341.958 270.771Z" fill="#0061FE"/>
<path d="M357.422 306.651L402.344 374.328" stroke="#DEF4FF" stroke-width="0.385417" stroke-miterlimit="10"/>
<path d="M402.635 407.292C380.464 393.292 375.797 373.453 357.13 345.448C348.448 332.422 337.745 323.818 328.781 318.333C316.297 310.698 310.219 295.875 313.891 281.708C315.833 274.208 318.25 266.735 320.427 260.531L306.375 253.849C306.375 253.849 305.125 253.922 303.162 254.318L302.875 254.432L287.25 262.37C282.042 267.432 278.042 275.485 278.953 288.271C281.287 320.943 330.875 337.86 330.875 337.86C330.875 337.86 334.958 339.609 348.958 362.948C362.958 386.287 444.057 471.464 444.641 474.964C445.224 478.464 444.057 479.047 448.141 480.797C450.099 481.636 454.615 477.234 458.781 472.427C447.958 456.865 420.182 418.375 402.635 407.292Z" fill="url(#paint25_radial_113_2177)"/>
<path d="M402.635 407.292C380.464 393.292 375.797 373.453 357.13 345.448C338.464 317.443 310.458 309.86 310.458 309.86C308.636 297.464 315.224 275.365 320.427 260.531L306.375 253.849C306.375 253.849 305.125 253.922 303.162 254.318L302.875 254.432L287.25 262.37C282.042 267.432 278.042 275.485 278.953 288.271C281.287 320.943 330.875 337.86 330.875 337.86C330.875 337.86 334.958 339.609 348.958 362.948C362.958 386.287 444.057 471.464 444.641 474.964C445.224 478.464 444.057 479.047 448.141 480.797C450.099 481.636 454.615 477.234 458.781 472.427C447.958 456.865 420.182 418.375 402.635 407.292Z" fill="url(#paint26_radial_113_2177)"/>
<path d="M498.459 271.573C498.459 271.573 521.651 269.604 525.151 270.771C525.151 270.771 525.734 269.021 521.068 266.688C516.401 264.354 507.651 265.521 507.651 265.521L496.568 266.104L498.459 271.573Z" fill="url(#paint27_radial_113_2177)"/>
<path d="M383.969 262.604C383.969 262.604 382.802 265.521 386.885 267.854C390.969 270.188 420.724 278.354 466.229 274.854C466.229 274.854 490.151 270.771 493.651 271.938C493.651 271.938 506.484 257.354 508.234 257.354C509.984 257.354 501.818 254.438 492.484 265.521L476.151 268.438H456.312L448.729 266.104C448.729 266.104 418.974 259.104 399.724 244.516C380.464 229.932 383.969 262.604 383.969 262.604Z" fill="#FFDE99"/>
<path d="M383.969 262.604C383.969 262.604 382.802 265.521 386.885 267.854C390.969 270.188 420.724 278.354 466.229 274.854C466.229 274.854 490.151 270.771 493.651 271.938C493.651 271.938 506.484 257.354 508.234 257.354C509.984 257.354 501.818 254.438 492.484 265.521L476.151 268.438H456.312L448.729 266.104C448.729 266.104 418.974 259.104 399.724 244.516C380.464 229.932 383.969 262.604 383.969 262.604Z" fill="url(#paint28_radial_113_2177)"/>
<path d="M390.385 180.927C390.385 180.927 397.969 229.349 396.802 235.766C396.802 235.766 400.885 234.016 402.052 235.766C403.219 237.516 402.052 240.432 402.052 240.432L404.969 244.516C404.969 244.516 386.885 265.521 383.964 265.521C382.005 265.521 378.995 261.313 377.224 258.547C376.49 257.396 376.359 255.943 376.969 254.724C377.286 254.089 377.547 253.224 377.547 252.104C377.547 249.188 370.547 238.104 369.38 204.266C368.214 170.422 390.385 180.927 390.385 180.927Z" fill="#F1D23C"/>
<path d="M390.385 180.927C390.385 180.927 397.969 229.349 396.802 235.766C396.802 235.766 400.885 234.016 402.052 235.766C403.219 237.516 402.052 240.432 402.052 240.432L404.969 244.516C404.969 244.516 386.885 265.521 383.964 265.521C382.005 265.521 378.995 261.313 377.224 258.547C376.49 257.396 376.359 255.943 376.969 254.724C377.286 254.089 377.547 253.224 377.547 252.104C377.547 249.188 370.547 238.104 369.38 204.266C368.214 170.422 390.385 180.927 390.385 180.927Z" fill="url(#paint29_radial_113_2177)"/>
<path d="M385.719 185.01C385.719 185.01 368.526 239.234 361.214 253.854C357.13 262.021 348.964 270.771 348.964 270.771C340.214 272.521 318.625 262.021 318.625 262.021L341.964 206.594L385.719 185.01Z" fill="#FB8F8F"/>
<path d="M404.969 140.089C404.969 140.089 397.969 145.339 389.219 166.344L381.052 158.76L375.219 150.01L374.052 143.594C374.052 143.594 389.219 133.677 387.469 118.505C385.719 103.333 414.886 120.25 404.969 140.089Z" fill="#FFDE99"/>
<path d="M404.969 140.089C404.969 140.089 397.969 145.339 389.219 166.344L381.052 158.76L375.219 150.01L374.052 143.594C374.052 143.594 389.219 133.677 387.469 118.505C385.719 103.333 414.886 120.25 404.969 140.089Z" fill="url(#paint30_radial_113_2177)"/>
<path d="M420.135 93.995C420.135 93.995 421.302 139.5 413.719 145.917C413.719 145.917 402.052 146.5 396.802 141.25C389.802 134.25 388.052 126.667 388.052 126.667V119.667L377.552 115.583L372.885 101L380.469 92.2502L401.474 89.3335L414.891 89.9168L420.135 93.995Z" fill="#FFDE99"/>
<path d="M420.135 93.995C420.135 93.995 421.302 139.5 413.719 145.917C413.719 145.917 402.052 146.5 396.802 141.25C389.802 134.25 388.052 126.667 388.052 126.667V119.667L377.552 115.583L372.885 101L380.469 92.2502L401.474 89.3335L414.891 89.9168L420.135 93.995Z" fill="url(#paint31_radial_113_2177)"/>
<path d="M417.099 138.859C418.578 133.177 419.365 125.161 419.776 117.474C415.49 112.984 397.386 117.922 397.386 117.922V118.505L393.886 134.255L409.636 143.005L417.099 138.859Z" fill="url(#paint32_radial_113_2177)"/>
<path d="M402.583 100.26C402.99 98.5157 403.99 96.9428 405.458 95.9115C406.636 95.0886 407.948 94.6824 408.766 96.0365C410.516 98.9532 414.599 106.537 422.766 103.037C430.932 99.5365 425.682 87.8699 425.682 87.8699C425.682 87.8699 429.766 93.1199 428.016 96.6199C428.016 96.6199 436.182 89.0365 428.599 77.3647C421.016 65.6928 410.516 84.3647 407.011 77.3647C403.505 70.3647 397.677 66.2813 392.427 70.948C387.177 75.6147 387.761 77.3647 387.761 77.3647C387.761 77.3647 388.927 72.698 384.261 73.2813C379.594 73.8647 377.261 75.6147 371.427 73.8647C365.594 72.1147 352.755 75.0313 359.761 94.2865C366.761 113.542 374.927 114.125 373.177 117.625C371.427 121.125 368.511 128.125 378.427 127.542C388.344 126.958 387.401 123.88 387.401 123.88L388.344 119.958C388.344 119.958 379.594 117.042 384.844 110.042C390.094 103.042 393.011 110.042 393.011 110.042C393.011 110.042 398.844 104.792 401.177 97.7917C401.177 97.7917 398.844 107.125 395.927 109.458C395.927 109.458 400.906 107.464 402.583 100.26Z" fill="#241921"/>
<path d="M402.583 100.26C402.99 98.5157 403.99 96.9428 405.458 95.9115C406.636 95.0886 407.948 94.6824 408.766 96.0365C410.516 98.9532 414.599 106.537 422.766 103.037C430.932 99.5365 425.682 87.8699 425.682 87.8699C425.682 87.8699 429.766 93.1199 428.016 96.6199C428.016 96.6199 436.182 89.0365 428.599 77.3647C421.016 65.6928 410.516 84.3647 407.011 77.3647C403.505 70.3647 397.677 66.2813 392.427 70.948C387.177 75.6147 387.761 77.3647 387.761 77.3647C387.761 77.3647 388.927 72.698 384.261 73.2813C379.594 73.8647 377.261 75.6147 371.427 73.8647C365.594 72.1147 352.755 75.0313 359.761 94.2865C366.761 113.542 374.927 114.125 373.177 117.625C371.427 121.125 368.511 128.125 378.427 127.542C388.344 126.958 387.401 123.88 387.401 123.88L388.344 119.958C388.344 119.958 379.594 117.042 384.844 110.042C390.094 103.042 393.011 110.042 393.011 110.042C393.011 110.042 398.844 104.792 401.177 97.7917C401.177 97.7917 398.844 107.125 395.927 109.458C395.927 109.458 400.906 107.464 402.583 100.26Z" fill="url(#paint33_radial_113_2177)"/>
<path d="M392.135 156.422C392.135 156.422 383.385 152.339 379.885 142.422C376.385 132.505 367.635 131.339 367.635 131.339C367.635 131.339 365.302 130.755 366.469 135.422C367.635 140.089 364.719 147.672 353.635 149.422C342.552 151.172 270.208 164.589 260.286 182.094C260.286 182.094 257.37 174.51 256.203 183.26V189.677C256.203 189.677 252.703 184.427 252.12 189.677C251.536 194.927 255.036 195.51 255.036 195.51L256.786 193.76C256.786 193.76 280.125 204.844 277.792 211.844C277.792 211.844 281.292 214.76 281.875 207.177C281.875 207.177 282.458 209.51 287.125 207.76L287.708 204.844C287.708 204.844 304.042 201.927 313.38 201.344C313.38 201.344 294.125 229.349 287.125 233.432C280.125 237.516 240.453 268.437 240.453 268.437L187.354 299.359C187.354 299.359 210.693 334.364 215.359 334.948L224.109 329.698C224.109 329.698 232.859 334.948 238.109 344.281C243.359 353.614 256.193 367.036 280.115 365.87C280.115 365.87 274.865 337.864 303.453 287.693C332.042 237.521 371.714 211.844 386.302 190.26C400.885 168.672 399.719 158.755 399.719 158.755L392.135 156.422Z" fill="#F1D23C"/>
<path d="M392.135 156.422C392.135 156.422 383.385 152.339 379.885 142.422C376.385 132.505 367.635 131.339 367.635 131.339C367.635 131.339 365.302 130.755 366.469 135.422C367.635 140.089 364.719 147.672 353.635 149.422C342.552 151.172 270.208 164.589 260.286 182.094C260.286 182.094 257.37 174.51 256.203 183.26V189.677C256.203 189.677 252.703 184.427 252.12 189.677C251.536 194.927 255.036 196.094 255.036 196.094L256.203 194.344C256.203 194.344 280.125 204.844 277.792 211.844C277.792 211.844 281.292 214.76 281.875 207.177C281.875 207.177 282.458 209.51 287.125 207.76L287.708 204.844C287.708 204.844 304.042 201.927 313.38 201.344C313.38 201.344 294.125 229.349 287.125 233.432C280.125 237.516 240.453 268.437 240.453 268.437L187.354 299.359C187.354 299.359 210.693 334.364 215.359 334.948L224.109 329.698C224.109 329.698 232.859 334.948 238.109 344.281C243.359 353.614 256.193 367.036 280.115 365.87C280.115 365.87 274.865 337.864 303.453 287.693C332.042 237.521 371.714 211.844 386.302 190.26C400.885 168.672 399.719 158.755 399.719 158.755L392.135 156.422Z" fill="url(#paint34_radial_113_2177)"/>
<path d="M399.719 158.755L392.136 156.422C392.136 156.422 383.386 152.339 379.886 142.422C376.386 132.505 367.636 131.339 367.636 131.339C367.636 131.339 365.303 130.755 366.469 135.422C367.636 140.089 364.719 147.672 353.636 149.422C351.068 149.828 345.219 150.859 337.626 152.422C337.839 156.474 338.131 160.526 338.527 164.568C340.573 185.542 345.584 205.792 353.516 224.891C367.433 211.125 379.558 200.255 386.313 190.26C400.886 168.672 399.719 158.755 399.719 158.755Z" fill="url(#paint35_radial_113_2177)"/>
<path d="M141.558 262.896C141.558 262.896 207.485 248.896 261.157 280.396C269.016 285.01 335.25 349.823 479.938 389.495C538.422 405.531 688.802 426.833 688.802 426.833" stroke="#0144B9" stroke-width="0.385417" stroke-miterlimit="10"/>
<path d="M277.786 212.427C277.786 212.427 254.719 249.677 249.917 261.682C249.917 261.682 257.953 266.104 259.703 268.438C261.453 270.771 264.953 279.521 270.786 281.854C270.786 281.854 266.703 285.354 263.786 283.021C260.87 280.688 260.87 280.688 260.87 280.688L263.786 284.188C263.786 284.188 260.286 288.854 257.953 288.271C255.62 287.688 256.203 288.854 253.286 288.271C250.37 287.688 248.62 285.938 248.62 285.938C248.62 285.938 248.62 287.688 246.87 287.104C245.521 286.656 239.688 280.125 237.068 276.594C236.255 275.5 235.984 274.094 236.328 272.776L239.286 261.432C239.286 261.432 242.786 214.177 256.203 194.339C256.198 194.344 281.87 202.51 277.786 212.427Z" fill="#FFDE99"/>
<path d="M277.786 212.427C277.786 212.427 254.719 249.677 249.917 261.682C249.917 261.682 257.953 266.104 259.703 268.438C261.453 270.771 264.953 279.521 270.786 281.854C270.786 281.854 266.703 285.354 263.786 283.021C260.87 280.688 260.87 280.688 260.87 280.688L263.786 284.188C263.786 284.188 260.286 288.854 257.953 288.271C255.62 287.688 256.203 288.854 253.286 288.271C250.37 287.688 248.62 285.938 248.62 285.938C248.62 285.938 248.62 287.688 246.87 287.104C245.521 286.656 239.688 280.125 237.068 276.594C236.255 275.5 235.984 274.094 236.328 272.776L239.286 261.432C239.286 261.432 242.786 214.177 256.203 194.339C256.198 194.344 281.87 202.51 277.786 212.427Z" fill="url(#paint36_radial_113_2177)"/>
<path d="M537.734 268.594H401.547C400.453 268.594 399.568 267.708 399.568 266.615V266.141C399.568 265.047 400.453 264.161 401.547 264.161H537.734C538.828 264.161 539.713 265.047 539.713 266.141V266.615C539.713 267.703 538.828 268.594 537.734 268.594Z" fill="#241921"/>
<path d="M537.734 268.594H457.016C455.922 268.594 455.037 267.708 455.037 266.615V266.141C455.037 265.047 455.922 264.161 457.016 264.161H537.734C538.828 264.161 539.713 265.047 539.713 266.141V266.615C539.713 267.703 538.828 268.594 537.734 268.594Z" fill="#0061FE"/>
<path d="M558.844 194.635H479.385C478.313 194.635 477.365 195.323 477.031 196.339L456.109 259.787C455.578 261.391 456.776 263.047 458.464 263.047H537.922C538.995 263.047 539.943 262.36 540.276 261.344L561.198 197.896C561.729 196.287 560.531 194.635 558.844 194.635Z" fill="#0061FE"/>
<path d="M445.703 267.484H439.219C438.76 267.484 438.396 267.115 438.396 266.661V266.464C438.396 266.005 438.766 265.641 439.219 265.641H445.703C446.162 265.641 446.526 266.01 446.526 266.464V266.661C446.531 267.115 446.162 267.484 445.703 267.484Z" stroke="#0061FE" stroke-width="0.385417" stroke-miterlimit="10"/>
<path d="M534.266 267.667H527.781C527.323 267.667 526.958 267.297 526.958 266.844V266.646C526.958 266.188 527.328 265.823 527.781 265.823H534.266C534.724 265.823 535.089 266.193 535.089 266.646V266.844C535.094 267.297 534.724 267.667 534.266 267.667Z" stroke="#0061FE" stroke-width="0.385417" stroke-miterlimit="10"/>
<path d="M432.208 267.667H425.724C425.266 267.667 424.901 267.297 424.901 266.844V266.646C424.901 266.188 425.271 265.823 425.724 265.823H432.208C432.667 265.823 433.031 266.193 433.031 266.646V266.844C433.031 267.297 432.662 267.667 432.208 267.667Z" stroke="#0061FE" stroke-width="0.385417" stroke-miterlimit="10"/>
<path d="M450.698 267.667H450.5C450.042 267.667 449.677 267.297 449.677 266.844V266.646C449.677 266.188 450.047 265.823 450.5 265.823H450.698C451.156 265.823 451.521 266.193 451.521 266.646V266.844C451.521 267.297 451.151 267.667 450.698 267.667Z" stroke="#0061FE" stroke-width="0.385417" stroke-miterlimit="10"/>
<path d="M560.302 195.109C559.896 194.813 559.396 194.635 558.844 194.635H479.385C478.313 194.635 477.365 195.323 477.031 196.339L456.354 259.042L560.302 195.109Z" fill="url(#paint37_linear_113_2177)"/>
<path d="M546.948 199.479L521.802 215.01" stroke="white" stroke-width="0.385417" stroke-miterlimit="10"/>
<path d="M490.146 272.521L503.766 270.969C503.766 270.969 512.635 260.729 517.141 259.042C517.141 259.042 514.063 256.188 507.063 262.021C500.063 267.854 500.646 267.271 500.646 267.271H493.063L490.146 272.521Z" fill="#FFDE99"/>
<path d="M490.146 272.521L503.766 270.969C503.766 270.969 512.635 260.729 517.141 259.042C517.141 259.042 514.063 256.188 507.063 262.021C500.063 267.854 500.646 267.271 500.646 267.271H493.063L490.146 272.521Z" fill="url(#paint38_radial_113_2177)"/>
<path d="M492.479 265.521L476.146 268.437H476.036C473.031 268.437 470.057 269.016 467.239 270.062C462.245 271.922 453.271 273.76 451.51 275.615C456.208 275.49 461.114 275.245 466.224 274.854C466.224 274.854 487.812 273.104 493.646 271.937C493.646 271.937 506.479 257.354 508.229 257.354C509.979 257.354 501.818 254.437 492.479 265.521Z" fill="#FFDE99"/>
<path d="M224.109 329.698C224.109 329.698 215.943 322.698 215.359 327.365C214.776 332.031 216.526 334.365 215.359 334.948L224.109 329.698Z" fill="url(#paint39_radial_113_2177)"/>
<path d="M216.505 325.761L216.542 325.807C218.953 325.281 224.104 329.698 224.104 329.698C224.104 329.698 232.854 334.948 238.104 344.281C239.156 346.156 240.526 348.193 242.219 350.25L279 280.693L216.505 325.761Z" fill="url(#paint40_radial_113_2177)"/>
<path d="M263.782 284.188L261.35 281.271C261.35 281.271 257.365 277.771 257.365 274.271C257.365 271.401 245.594 277.943 237.495 277.172C240.277 280.792 245.584 286.682 246.86 287.109C248.61 287.693 248.61 285.943 248.61 285.943C248.61 285.943 250.36 287.693 253.277 288.276C256.193 288.859 255.61 287.693 257.943 288.276C260.282 288.859 263.782 284.188 263.782 284.188Z" fill="url(#paint41_radial_113_2177)"/>
<path d="M391.844 161.38C391.844 161.38 390.678 181.219 356.204 212.594" stroke="white" stroke-width="0.385417" stroke-miterlimit="10"/>
<path d="M400.594 91.3699C400.594 91.3699 398.844 100.703 391.844 105.37" stroke="#0061FE" stroke-width="0.385417" stroke-miterlimit="10"/>
<path d="M396.51 93.7031C396.51 93.7031 393.594 101.286 382.51 106.536" stroke="#0061FE" stroke-width="0.385417" stroke-miterlimit="10"/>
<path d="M464.479 459.797C464.479 459.797 457.479 472.047 448.729 477.297" stroke="#DEF4FF" stroke-width="0.385417" stroke-miterlimit="10"/>
<path d="M168.979 353.906C168.979 353.906 170.453 344.094 177.01 339.375" stroke="#DEF4FF" stroke-width="0.385417" stroke-miterlimit="10"/>
<path d="M35.3386 380.708C32.7448 384.13 32.849 389.333 35.5833 392.646C38.7396 396.469 44.4688 397.484 47.4479 401.443C49.7188 404.458 49.8177 408.932 47.6823 412.047" stroke="#0061FE" stroke-width="0.385417" stroke-miterlimit="10"/>
<path d="M781.521 357.552C783.677 357.552 785.427 355.803 785.427 353.646C785.427 351.489 783.677 349.74 781.521 349.74C779.365 349.74 777.615 351.489 777.615 353.646C777.615 355.803 779.365 357.552 781.521 357.552Z" stroke="#0061FE" stroke-width="0.385417" stroke-miterlimit="10"/>
<path d="M103.403 201.231L98.3735 202.584L99.7271 207.613L104.756 206.26L103.403 201.231Z" stroke="#FA404B" stroke-width="0.385417" stroke-miterlimit="10"/>
<path d="M516.677 324.74C516.677 324.74 535.427 303.906 562.511 315.365" stroke="#FA404B" stroke-width="0.385417" stroke-miterlimit="10"/>
<path d="M145.844 400.781L137.51 413.281" stroke="#FA404B" stroke-width="0.385417" stroke-miterlimit="10"/>
<path d="M215.636 86.7188L223.448 92.4479" stroke="#FA404B" stroke-width="0.385417" stroke-miterlimit="10"/>
<path d="M714.771 277.375C720.818 278.833 727.651 276.031 730.937 270.745C732.141 268.807 732.891 266.609 734.104 264.672C736.344 261.104 740.193 258.589 744.359 257.969" stroke="#0061FE" stroke-width="0.385417" stroke-miterlimit="10"/>
<defs>
<radialGradient id="paint0_radial_113_2177" cx="0" cy="0" r="1" gradientUnits="userSpaceOnUse" gradientTransform="translate(381.828 107.22) scale(525.813 525.812)">
<stop stop-color="#EECFF8"/>
<stop offset="0.9011" stop-color="white" stop-opacity="0"/>
</radialGradient>
<radialGradient id="paint1_radial_113_2177" cx="0" cy="0" r="1" gradientUnits="userSpaceOnUse" gradientTransform="translate(743.646 501.43) scale(67.2653 67.2652)">
<stop offset="0.3231" stop-color="#C184A8" stop-opacity="0.2102"/>
<stop offset="0.9171" stop-color="#0061FE"/>
</radialGradient>
<radialGradient id="paint2_radial_113_2177" cx="0" cy="0" r="1" gradientUnits="userSpaceOnUse" gradientTransform="translate(738.12 486.617) scale(28.5371 28.537)">
<stop offset="0.1043" stop-color="#FFDE99"/>
<stop offset="0.1056" stop-color="#FFDE99" stop-opacity="0.9985"/>
<stop offset="0.268" stop-color="#E9BD9E" stop-opacity="0.8173"/>
<stop offset="0.4348" stop-color="#D7A4A3" stop-opacity="0.6311"/>
<stop offset="0.6085" stop-color="#CB92A6" stop-opacity="0.4371"/>
<stop offset="0.7917" stop-color="#C387A7" stop-opacity="0.2326"/>
<stop offset="1" stop-color="#C184A8" stop-opacity="0"/>
</radialGradient>
<radialGradient id="paint3_radial_113_2177" cx="0" cy="0" r="1" gradientUnits="userSpaceOnUse" gradientTransform="translate(642.906 518.895) scale(74.6933 74.6931)">
<stop offset="0.3231" stop-color="#C184A8" stop-opacity="0.2102"/>
<stop offset="0.9171" stop-color="#0061FE"/>
</radialGradient>
<radialGradient id="paint4_radial_113_2177" cx="0" cy="0" r="1" gradientUnits="userSpaceOnUse" gradientTransform="translate(645.042 499.661) scale(48.3427 48.3426)">
<stop offset="0.1043" stop-color="#FFDE99"/>
<stop offset="0.1056" stop-color="#FFDE99" stop-opacity="0.9985"/>
<stop offset="0.268" stop-color="#E9BD9E" stop-opacity="0.8173"/>
<stop offset="0.4348" stop-color="#D7A4A3" stop-opacity="0.6311"/>
<stop offset="0.6085" stop-color="#CB92A6" stop-opacity="0.4371"/>
<stop offset="0.7917" stop-color="#C387A7" stop-opacity="0.2326"/>
<stop offset="1" stop-color="#C184A8" stop-opacity="0"/>
</radialGradient>
<radialGradient id="paint5_radial_113_2177" cx="0" cy="0" r="1" gradientUnits="userSpaceOnUse" gradientTransform="translate(707.276 414.875) scale(39.9153 39.9153)">
<stop offset="0.3231" stop-color="#C184A8" stop-opacity="0.2102"/>
<stop offset="0.9171" stop-color="#0061FE"/>
</radialGradient>
<radialGradient id="paint6_radial_113_2177" cx="0" cy="0" r="1" gradientUnits="userSpaceOnUse" gradientTransform="translate(685.792 469.79) rotate(-12.7855) scale(229.955 84.0189)">
<stop offset="0.3231" stop-color="#C184A8" stop-opacity="0.2102"/>
<stop offset="0.9171" stop-color="#0061FE"/>
</radialGradient>
<radialGradient id="paint7_radial_113_2177" cx="0" cy="0" r="1" gradientUnits="userSpaceOnUse" gradientTransform="translate(605.687 497.229) scale(46.1853 46.1856)">
<stop offset="0.1043" stop-color="#FFDE99"/>
<stop offset="0.1056" stop-color="#FFDE99" stop-opacity="0.9985"/>
<stop offset="0.268" stop-color="#E9BD9E" stop-opacity="0.8173"/>
<stop offset="0.4348" stop-color="#D7A4A3" stop-opacity="0.6311"/>
<stop offset="0.6085" stop-color="#CB92A6" stop-opacity="0.4371"/>
<stop offset="0.7917" stop-color="#C387A7" stop-opacity="0.2326"/>
<stop offset="1" stop-color="#C184A8" stop-opacity="0"/>
</radialGradient>
<radialGradient id="paint8_radial_113_2177" cx="0" cy="0" r="1" gradientUnits="userSpaceOnUse" gradientTransform="translate(708.938 497.892) scale(28.9316 28.9318)">
<stop offset="0.1043" stop-color="#FFDE99"/>
<stop offset="0.1056" stop-color="#FFDE99" stop-opacity="0.9985"/>
<stop offset="0.268" stop-color="#E9BD9E" stop-opacity="0.8173"/>
<stop offset="0.4348" stop-color="#D7A4A3" stop-opacity="0.6311"/>
<stop offset="0.6085" stop-color="#CB92A6" stop-opacity="0.4371"/>
<stop offset="0.7917" stop-color="#C387A7" stop-opacity="0.2326"/>
<stop offset="1" stop-color="#C184A8" stop-opacity="0"/>
</radialGradient>
<radialGradient id="paint9_radial_113_2177" cx="0" cy="0" r="1" gradientTransform="matrix(63.7955 -20.0992 13.5289 42.9415 747.14 442.264)" gradientUnits="userSpaceOnUse">
<stop offset="0.1043" stop-color="#FFDE99"/>
<stop offset="0.1056" stop-color="#FFDE99" stop-opacity="0.9985"/>
<stop offset="0.268" stop-color="#E9BD9E" stop-opacity="0.8173"/>
<stop offset="0.4348" stop-color="#D7A4A3" stop-opacity="0.6311"/>
<stop offset="0.6085" stop-color="#CB92A6" stop-opacity="0.4371"/>
<stop offset="0.7917" stop-color="#C387A7" stop-opacity="0.2326"/>
<stop offset="1" stop-color="#C184A8" stop-opacity="0"/>
</radialGradient>
<radialGradient id="paint10_radial_113_2177" cx="0" cy="0" r="1" gradientUnits="userSpaceOnUse" gradientTransform="translate(718.662 453.454) scale(36.3964 36.3966)">
<stop stop-color="#0061FE"/>
<stop offset="0.0175" stop-color="#1B66F2"/>
<stop offset="0.0482" stop-color="#466EDF"/>
<stop offset="0.0825" stop-color="#6C75CE"/>
<stop offset="0.1196" stop-color="#8D7BBF"/>
<stop offset="0.1604" stop-color="#A980B3"/>
<stop offset="0.2062" stop-color="#C084A9"/>
<stop offset="0.2592" stop-color="#D187A1"/>
<stop offset="0.3238" stop-color="#DD899C"/>
<stop offset="0.4126" stop-color="#E48B99"/>
<stop offset="0.639" stop-color="#E68B98"/>
<stop offset="1" stop-color="#FB8F8F" stop-opacity="0"/>
</radialGradient>
<radialGradient id="paint11_radial_113_2177" cx="0" cy="0" r="1" gradientUnits="userSpaceOnUse" gradientTransform="translate(737.51 419.463) scale(9.76347 9.76332)">
<stop stop-color="#0144B9"/>
<stop offset="0.0286" stop-color="#0C47B7" stop-opacity="0.9606"/>
<stop offset="0.2403" stop-color="#5C5FAA" stop-opacity="0.6686"/>
<stop offset="0.3908" stop-color="#8E6EA1" stop-opacity="0.4611"/>
<stop offset="0.4648" stop-color="#A1749E" stop-opacity="0.3591"/>
<stop offset="0.4868" stop-color="#A7769D" stop-opacity="0.3443"/>
<stop offset="0.6368" stop-color="#CB8197" stop-opacity="0.2437"/>
<stop offset="0.7768" stop-color="#E68993" stop-opacity="0.1497"/>
<stop offset="0.9021" stop-color="#F58D90" stop-opacity="0.0657"/>
<stop offset="1" stop-color="#FB8F8F" stop-opacity="0"/>
</radialGradient>
<radialGradient id="paint12_radial_113_2177" cx="0" cy="0" r="1" gradientUnits="userSpaceOnUse" gradientTransform="translate(778.942 450.506) scale(29.8413 29.8425)">
<stop offset="0.3176" stop-color="#FB8F8F" stop-opacity="0"/>
<stop offset="0.3846" stop-color="#F58D90" stop-opacity="0.0982"/>
<stop offset="0.4703" stop-color="#E58993" stop-opacity="0.2238"/>
<stop offset="0.5662" stop-color="#CB8197" stop-opacity="0.3644"/>
<stop offset="0.6696" stop-color="#A6769D" stop-opacity="0.5158"/>
<stop offset="0.779" stop-color="#7768A5" stop-opacity="0.6762"/>
<stop offset="0.8915" stop-color="#3F57AF" stop-opacity="0.8411"/>
<stop offset="1" stop-color="#0144B9"/>
</radialGradient>
<radialGradient id="paint13_radial_113_2177" cx="0" cy="0" r="1" gradientUnits="userSpaceOnUse" gradientTransform="translate(740.109 431.899) scale(12.9532 12.9537)">
<stop offset="0.3176" stop-color="#FB8F8F" stop-opacity="0"/>
<stop offset="0.3846" stop-color="#F58D90" stop-opacity="0.0982"/>
<stop offset="0.4703" stop-color="#E58993" stop-opacity="0.2238"/>
<stop offset="0.5662" stop-color="#CB8197" stop-opacity="0.3644"/>
<stop offset="0.6696" stop-color="#A6769D" stop-opacity="0.5158"/>
<stop offset="0.779" stop-color="#7768A5" stop-opacity="0.6762"/>
<stop offset="0.8915" stop-color="#3F57AF" stop-opacity="0.8411"/>
<stop offset="1" stop-color="#0144B9"/>
</radialGradient>
<radialGradient id="paint14_radial_113_2177" cx="0" cy="0" r="1" gradientTransform="matrix(-3.3334 15.5645 -8.22177 -1.76076 736.208 427.777)" gradientUnits="userSpaceOnUse">
<stop offset="0.3176" stop-color="#FB8F8F" stop-opacity="0"/>
<stop offset="0.3846" stop-color="#F58D90" stop-opacity="0.0982"/>
<stop offset="0.4703" stop-color="#E58993" stop-opacity="0.2238"/>
<stop offset="0.5662" stop-color="#CB8197" stop-opacity="0.3644"/>
<stop offset="0.6696" stop-color="#A6769D" stop-opacity="0.5158"/>
<stop offset="0.779" stop-color="#7768A5" stop-opacity="0.6762"/>
<stop offset="0.8915" stop-color="#3F57AF" stop-opacity="0.8411"/>
<stop offset="1" stop-color="#0144B9"/>
</radialGradient>
<radialGradient id="paint15_radial_113_2177" cx="0" cy="0" r="1" gradientUnits="userSpaceOnUse" gradientTransform="translate(657.203 495.755) scale(77.9321 77.9324)">
<stop offset="0.3231" stop-color="#C184A8" stop-opacity="0.2102"/>
<stop offset="0.9171" stop-color="#0061FE"/>
</radialGradient>
<radialGradient id="paint16_radial_113_2177" cx="0" cy="0" r="1" gradientUnits="userSpaceOnUse" gradientTransform="translate(559.854 103.668) scale(217.119 217.118)">
<stop stop-color="#0061FE"/>
<stop offset="0.0281" stop-color="#106CFE" stop-opacity="0.9719"/>
<stop offset="0.1219" stop-color="#408BFE" stop-opacity="0.8781"/>
<stop offset="0.2211" stop-color="#6AA7FE" stop-opacity="0.7789"/>
<stop offset="0.3241" stop-color="#8EBFFF" stop-opacity="0.6759"/>
<stop offset="0.4318" stop-color="#ABD2FF" stop-opacity="0.5682"/>
<stop offset="0.546" stop-color="#C2E1FF" stop-opacity="0.454"/>
<stop offset="0.6696" stop-color="#D2ECFF" stop-opacity="0.3304"/>
<stop offset="0.8094" stop-color="#DBF2FF" stop-opacity="0.1906"/>
<stop offset="1" stop-color="#DEF4FF" stop-opacity="0"/>
</radialGradient>
<radialGradient id="paint17_radial_113_2177" cx="0" cy="0" r="1" gradientUnits="userSpaceOnUse" gradientTransform="translate(563.542 129.2) scale(44.317 44.317)">
<stop stop-color="#FB8F8F"/>
<stop offset="1" stop-color="#F9C1DA" stop-opacity="0"/>
</radialGradient>
<radialGradient id="paint18_radial_113_2177" cx="0" cy="0" r="1" gradientUnits="userSpaceOnUse" gradientTransform="translate(569.333 115.461) scale(68.3546 68.3547)">
<stop stop-color="#FB8F8F"/>
<stop offset="1" stop-color="#F9C1DA" stop-opacity="0"/>
</radialGradient>
<radialGradient id="paint19_radial_113_2177" cx="0" cy="0" r="1" gradientUnits="userSpaceOnUse" gradientTransform="translate(575.844 108.43) scale(68.3547 68.3547)">
<stop stop-color="#FB8F8F"/>
<stop offset="1" stop-color="#F9C1DA" stop-opacity="0"/>
</radialGradient>
<radialGradient id="paint20_radial_113_2177" cx="0" cy="0" r="1" gradientUnits="userSpaceOnUse" gradientTransform="translate(560.068 160.504) scale(160.821 105.615)">
<stop stop-color="#0061FE"/>
<stop offset="0.0281" stop-color="#106CFE" stop-opacity="0.9719"/>
<stop offset="0.1219" stop-color="#408BFE" stop-opacity="0.8781"/>
<stop offset="0.2211" stop-color="#6AA7FE" stop-opacity="0.7789"/>
<stop offset="0.3241" stop-color="#8EBFFF" stop-opacity="0.6759"/>
<stop offset="0.4318" stop-color="#ABD2FF" stop-opacity="0.5682"/>
<stop offset="0.546" stop-color="#C2E1FF" stop-opacity="0.454"/>
<stop offset="0.6696" stop-color="#D2ECFF" stop-opacity="0.3304"/>
<stop offset="0.8094" stop-color="#DBF2FF" stop-opacity="0.1906"/>
<stop offset="1" stop-color="#DEF4FF" stop-opacity="0"/>
</radialGradient>
<radialGradient id="paint21_radial_113_2177" cx="0" cy="0" r="1" gradientUnits="userSpaceOnUse" gradientTransform="translate(560.068 169.358) scale(160.821 105.615)">
<stop stop-color="#0061FE"/>
<stop offset="0.0281" stop-color="#106CFE" stop-opacity="0.9719"/>
<stop offset="0.1219" stop-color="#408BFE" stop-opacity="0.8781"/>
<stop offset="0.2211" stop-color="#6AA7FE" stop-opacity="0.7789"/>
<stop offset="0.3241" stop-color="#8EBFFF" stop-opacity="0.6759"/>
<stop offset="0.4318" stop-color="#ABD2FF" stop-opacity="0.5682"/>
<stop offset="0.546" stop-color="#C2E1FF" stop-opacity="0.454"/>
<stop offset="0.6696" stop-color="#D2ECFF" stop-opacity="0.3304"/>
<stop offset="0.8094" stop-color="#DBF2FF" stop-opacity="0.1906"/>
<stop offset="1" stop-color="#DEF4FF" stop-opacity="0"/>
</radialGradient>
<radialGradient id="paint22_radial_113_2177" cx="0" cy="0" r="1" gradientUnits="userSpaceOnUse" gradientTransform="translate(156.372 314.319) scale(72.6193 72.6193)">
<stop stop-color="#FA404B"/>
<stop offset="0.025" stop-color="#FA484F" stop-opacity="0.975"/>
<stop offset="0.1916" stop-color="#FC7565" stop-opacity="0.8084"/>
<stop offset="0.3589" stop-color="#FD9B78" stop-opacity="0.6411"/>
<stop offset="0.5244" stop-color="#FEB886" stop-opacity="0.4756"/>
<stop offset="0.6876" stop-color="#FECD91" stop-opacity="0.3124"/>
<stop offset="0.8474" stop-color="#FFDA97" stop-opacity="0.1526"/>
<stop offset="1" stop-color="#FFDE99" stop-opacity="0"/>
</radialGradient>
<radialGradient id="paint23_radial_113_2177" cx="0" cy="0" r="1" gradientUnits="userSpaceOnUse" gradientTransform="translate(270.304 292.505) scale(138.031 138.031)">
<stop offset="0.00534759" stop-color="#241921"/>
<stop offset="1" stop-color="#0061FE" stop-opacity="0"/>
</radialGradient>
<radialGradient id="paint24_radial_113_2177" cx="0" cy="0" r="1" gradientUnits="userSpaceOnUse" gradientTransform="translate(447.614 483.522) scale(49.3127 49.3128)">
<stop stop-color="#FA404B"/>
<stop offset="0.025" stop-color="#FA484F" stop-opacity="0.975"/>
<stop offset="0.1916" stop-color="#FC7565" stop-opacity="0.8084"/>
<stop offset="0.3589" stop-color="#FD9B78" stop-opacity="0.6411"/>
<stop offset="0.5244" stop-color="#FEB886" stop-opacity="0.4756"/>
<stop offset="0.6876" stop-color="#FECD91" stop-opacity="0.3124"/>
<stop offset="0.8474" stop-color="#FFDA97" stop-opacity="0.1526"/>
<stop offset="1" stop-color="#FFDE99" stop-opacity="0"/>
</radialGradient>
<radialGradient id="paint25_radial_113_2177" cx="0" cy="0" r="1" gradientUnits="userSpaceOnUse" gradientTransform="translate(207.075 230.16) scale(238.687 238.687)">
<stop offset="0.00534759" stop-color="#241921"/>
<stop offset="1" stop-color="#0061FE" stop-opacity="0"/>
</radialGradient>
<radialGradient id="paint26_radial_113_2177" cx="0" cy="0" r="1" gradientUnits="userSpaceOnUse" gradientTransform="translate(367.581 505.188) scale(146.237 146.237)">
<stop offset="0.00534759" stop-color="#241921"/>
<stop offset="1" stop-color="#0061FE" stop-opacity="0"/>
</radialGradient>
<radialGradient id="paint27_radial_113_2177" cx="0" cy="0" r="1" gradientUnits="userSpaceOnUse" gradientTransform="translate(495.813 263.101) scale(31.3221 31.3225)">
<stop stop-color="#FA404B"/>
<stop offset="0.025" stop-color="#FA484F"/>
<stop offset="0.1916" stop-color="#FC7565"/>
<stop offset="0.3589" stop-color="#FD9B78"/>
<stop offset="0.5244" stop-color="#FEB886"/>
<stop offset="0.6876" stop-color="#FECD91"/>
<stop offset="0.8474" stop-color="#FFDA97"/>
<stop offset="1" stop-color="#FFDE99"/>
</radialGradient>
<radialGradient id="paint28_radial_113_2177" cx="0" cy="0" r="1" gradientUnits="userSpaceOnUse" gradientTransform="translate(439.778 266.325) rotate(4.60568) scale(29.6892 14.3114)">
<stop stop-color="#FA404B"/>
<stop offset="0.025" stop-color="#FA484F" stop-opacity="0.975"/>
<stop offset="0.1916" stop-color="#FC7565" stop-opacity="0.8084"/>
<stop offset="0.3589" stop-color="#FD9B78" stop-opacity="0.6411"/>
<stop offset="0.5244" stop-color="#FEB886" stop-opacity="0.4756"/>
<stop offset="0.6876" stop-color="#FECD91" stop-opacity="0.3124"/>
<stop offset="0.8474" stop-color="#FFDA97" stop-opacity="0.1526"/>
<stop offset="1" stop-color="#FFDE99" stop-opacity="0"/>
</radialGradient>
<radialGradient id="paint29_radial_113_2177" cx="0" cy="0" r="1" gradientUnits="userSpaceOnUse" gradientTransform="translate(360.507 183.29) scale(134.006 134.006)">
<stop stop-color="#FB8F8F"/>
<stop offset="1" stop-color="#F9C1DA" stop-opacity="0"/>
</radialGradient>
<radialGradient id="paint30_radial_113_2177" cx="0" cy="0" r="1" gradientUnits="userSpaceOnUse" gradientTransform="translate(405.829 146.147) scale(33.4021 33.402)">
<stop stop-color="#FA404B"/>
<stop offset="0.025" stop-color="#FA484F" stop-opacity="0.975"/>
<stop offset="0.1916" stop-color="#FC7565" stop-opacity="0.8084"/>
<stop offset="0.3589" stop-color="#FD9B78" stop-opacity="0.6411"/>
<stop offset="0.5244" stop-color="#FEB886" stop-opacity="0.4756"/>
<stop offset="0.6876" stop-color="#FECD91" stop-opacity="0.3124"/>
<stop offset="0.8474" stop-color="#FFDA97" stop-opacity="0.1526"/>
<stop offset="1" stop-color="#FFDE99" stop-opacity="0"/>
</radialGradient>
<radialGradient id="paint31_radial_113_2177" cx="0" cy="0" r="1" gradientUnits="userSpaceOnUse" gradientTransform="translate(378.93 102.078) scale(43.5285 43.5285)">
<stop stop-color="#FA404B"/>
<stop offset="0.025" stop-color="#FA484F" stop-opacity="0.975"/>
<stop offset="0.1916" stop-color="#FC7565" stop-opacity="0.8084"/>
<stop offset="0.3589" stop-color="#FD9B78" stop-opacity="0.6411"/>
<stop offset="0.5244" stop-color="#FEB886" stop-opacity="0.4756"/>
<stop offset="0.6876" stop-color="#FECD91" stop-opacity="0.3124"/>
<stop offset="0.8474" stop-color="#FFDA97" stop-opacity="0.1526"/>
<stop offset="1" stop-color="#FFDE99" stop-opacity="0"/>
</radialGradient>
<radialGradient id="paint32_radial_113_2177" cx="0" cy="0" r="1" gradientUnits="userSpaceOnUse" gradientTransform="translate(416.957 107.384) scale(32.4557 32.4558)">
<stop stop-color="#FA404B"/>
<stop offset="0.025" stop-color="#FA484F" stop-opacity="0.975"/>
<stop offset="0.1916" stop-color="#FC7565" stop-opacity="0.8084"/>
<stop offset="0.3589" stop-color="#FD9B78" stop-opacity="0.6411"/>
<stop offset="0.5244" stop-color="#FEB886" stop-opacity="0.4756"/>
<stop offset="0.6876" stop-color="#FECD91" stop-opacity="0.3124"/>
<stop offset="0.8474" stop-color="#FFDA97" stop-opacity="0.1526"/>
<stop offset="1" stop-color="#FFDE99" stop-opacity="0"/>
</radialGradient>
<radialGradient id="paint33_radial_113_2177" cx="0" cy="0" r="1" gradientUnits="userSpaceOnUse" gradientTransform="translate(462.354 95.0032) scale(92.7546 92.7547)">
<stop stop-color="#0061FE"/>
<stop offset="0.9947" stop-color="#241921"/>
</radialGradient>
<radialGradient id="paint34_radial_113_2177" cx="0" cy="0" r="1" gradientUnits="userSpaceOnUse" gradientTransform="translate(236.7 191.248) scale(159.292 159.292)">
<stop stop-color="#FB8F8F"/>
<stop offset="1" stop-color="#F9C1DA" stop-opacity="0"/>
</radialGradient>
<radialGradient id="paint35_radial_113_2177" cx="0" cy="0" r="1" gradientUnits="userSpaceOnUse" gradientTransform="translate(406.935 155.875) scale(79.5473 79.5474)">
<stop stop-color="white"/>
<stop offset="1" stop-color="#F1D23C" stop-opacity="0"/>
</radialGradient>
<radialGradient id="paint36_radial_113_2177" cx="0" cy="0" r="1" gradientUnits="userSpaceOnUse" gradientTransform="translate(232.72 183.142) scale(88.2338 88.2338)">
<stop stop-color="#FA404B"/>
<stop offset="0.025" stop-color="#FA484F" stop-opacity="0.975"/>
<stop offset="0.1916" stop-color="#FC7565" stop-opacity="0.8084"/>
<stop offset="0.3589" stop-color="#FD9B78" stop-opacity="0.6411"/>
<stop offset="0.5244" stop-color="#FEB886" stop-opacity="0.4756"/>
<stop offset="0.6876" stop-color="#FECD91" stop-opacity="0.3124"/>
<stop offset="0.8474" stop-color="#FFDA97" stop-opacity="0.1526"/>
<stop offset="1" stop-color="#FFDE99" stop-opacity="0"/>
</radialGradient>
<linearGradient id="paint37_linear_113_2177" x1="528.406" y1="133.208" x2="503.057" y2="251.709" gradientUnits="userSpaceOnUse">
<stop offset="0.1791" stop-color="#F9C1DA"/>
<stop offset="1" stop-color="#EECFF8" stop-opacity="0"/>
</linearGradient>
<radialGradient id="paint38_radial_113_2177" cx="0" cy="0" r="1" gradientUnits="userSpaceOnUse" gradientTransform="translate(494.818 265.975) scale(12.4298 12.43)">
<stop stop-color="#FA404B"/>
<stop offset="0.025" stop-color="#FA484F" stop-opacity="0.975"/>
<stop offset="0.1916" stop-color="#FC7565" stop-opacity="0.8084"/>
<stop offset="0.3589" stop-color="#FD9B78" stop-opacity="0.6411"/>
<stop offset="0.5244" stop-color="#FEB886" stop-opacity="0.4756"/>
<stop offset="0.6876" stop-color="#FECD91" stop-opacity="0.3124"/>
<stop offset="0.8474" stop-color="#FFDA97" stop-opacity="0.1526"/>
<stop offset="1" stop-color="#FFDE99" stop-opacity="0"/>
</radialGradient>
<radialGradient id="paint39_radial_113_2177" cx="0" cy="0" r="1" gradientUnits="userSpaceOnUse" gradientTransform="translate(213.037 326.175) scale(20.251 20.2505)">
<stop stop-color="#FB8F8F"/>
<stop offset="1" stop-color="#F9C1DA" stop-opacity="0"/>
</radialGradient>
<radialGradient id="paint40_radial_113_2177" cx="0" cy="0" r="1" gradientUnits="userSpaceOnUse" gradientTransform="translate(219.013 314.392) scale(40.1625 40.1625)">
<stop stop-color="white"/>
<stop offset="1" stop-color="#F1D23C" stop-opacity="0"/>
</radialGradient>
<radialGradient id="paint41_radial_113_2177" cx="0" cy="0" r="1" gradientUnits="userSpaceOnUse" gradientTransform="translate(243.332 272.902) scale(20.8653 20.8654)">
<stop stop-color="#FA404B"/>
<stop offset="0.025" stop-color="#FA484F" stop-opacity="0.975"/>
<stop offset="0.1916" stop-color="#FC7565" stop-opacity="0.8084"/>
<stop offset="0.3589" stop-color="#FD9B78" stop-opacity="0.6411"/>
<stop offset="0.5244" stop-color="#FEB886" stop-opacity="0.4756"/>
<stop offset="0.6876" stop-color="#FECD91" stop-opacity="0.3124"/>
<stop offset="0.8474" stop-color="#FFDA97" stop-opacity="0.1526"/>
<stop offset="1" stop-color="#FFDE99" stop-opacity="0"/>
</radialGradient>
</defs>
</svg>
